# xmcd CD database file
#
# Track frame offsets:
#	150
#	18498
#	39731
#	58747
#	74763
#	99232
#	132178
#	163305
#	180458
#
# Disc length: 2715 seconds
#
# Revision: 0
# Processed by: cddbd v1.5.2PL0 Copyright (c) Steve Scherf et al.
# Submitted via: CDex 1.51
#
DISCID=7e0a9909
DTITLE=Reactor - Nuclear Blues
DYEAR=2002
DGENRE=Blues
TTITLE0=Heartbroke in Memphis
TTITLE1=Victims of Desire
TTITLE2=She's Got Voodoo
TTITLE3=Tink 19
TTITLE4=Low Down Blues
TTITLE5=Roll My Blues Away
TTITLE6=Lord Have Mercy
TTITLE7=Nuclear Blues
TTITLE8=Let It Go
EXTD=YEAR: 2002
EXTT0=
EXTT1=
EXTT2=
EXTT3=
EXTT4=
EXTT5=
EXTT6=
EXTT7=
EXTT8=
PLAYORDER=
